<svg width="32" height="32" viewBox="0 0 32 32" fill="none" xmlns="http://www.w3.org/2000/svg">
<path fill-rule="evenodd" clip-rule="evenodd" d="M3 18C3 15.0826 4.15893 12.2847 6.22183 10.2218C8.28473 8.15893 11.0826 7 14 7C14.2652 7 14.5196 7.10536 14.7071 7.29289C14.8946 7.48043 15 7.73478 15 8V17H24C24.2652 17 24.5196 17.1054 24.7071 17.2929C24.8946 17.4804 25 17.7348 25 18C25 20.9174 23.8411 23.7153 21.7782 25.7782C19.7153 27.8411 16.9174 29 14 29C11.0826 29 8.28473 27.8411 6.22183 25.7782C4.15893 23.7153 3 20.9174 3 18Z" fill="#239DF9"/>
<path fill-rule="evenodd" clip-rule="evenodd" d="M17 4C17 3.73478 17.1054 3.48043 17.2929 3.29289C17.4804 3.10536 17.7348 3 18 3C20.9174 3 23.7153 4.15893 25.7782 6.22183C27.8411 8.28473 29 11.0826 29 14C29 14.2652 28.8946 14.5196 28.7071 14.7071C28.5196 14.8946 28.2652 15 28 15H18C17.7348 15 17.4804 14.8946 17.2929 14.7071C17.1054 14.5196 17 14.2652 17 14V4Z" fill="#239DF9"/>
</svg>
